<svg id="Layer_1" data-name="Layer 1" xmlns="http://www.w3.org/2000/svg" xmlns:xlink="http://www.w3.org/1999/xlink" viewBox="0 0 500 500"><defs><style>.cls-1{mask:url(#mask);}.cls-2{filter:url(#luminosity-invert-noclip);}</style><filter id="luminosity-invert-noclip" x="26.1" y="-8442" width="448.25" height="32766" filterUnits="userSpaceOnUse" color-interpolation-filters="sRGB"><feColorMatrix values="-1 0 0 0 1 0 -1 0 0 1 0 0 -1 0 1 0 0 0 1 0" result="invert"/><feFlood flood-color="#fff" result="bg"/><feBlend in="invert" in2="bg"/></filter><mask id="mask" x="26.1" y="-8442" width="448.25" height="32766" maskUnits="userSpaceOnUse"><g class="cls-2"/></mask></defs><title>menuwave</title><g class="cls-1"><path d="M455.78,363.45s-14.34,19.72-34.06,20.62c-12.1.45-24.65-6.72-36.3-21.51-15.69-19.27-32.27-29.13-49.75-29.13h-2.24c-28.23,1.34-47.51,27.79-48.85,29.58h0s-14.34,19.72-34.06,20.62c-12.1.45-24.65-6.72-36.3-21.51C198.53,342.83,182,333,164.47,333h-2.24c-28.23,1.34-47.51,27.79-48.85,29.58h0S99,382.27,79.32,383.17c-11.65,1.34-23.75-5.83-35.41-20.17a8.67,8.67,0,0,0-7.17-3.59A9.36,9.36,0,0,0,29.57,363c-4,4.93-4,13,0,18.38,16.13,20.17,33.61,29.58,52,28.68,28.68-1.34,48-28.23,48.85-29.58,0,0,14.34-19.72,33.61-20.62,12.1-.45,24.65,6.72,36.3,21.51,16.13,20.17,33.61,29.58,52,28.68,28.68-1.34,48-28.23,48.85-29.58,0,0,14.34-19.72,33.61-20.62,12.1-.45,24.65,6.72,36.3,21.51,16.13,20.17,33.61,29.58,52,28.68,28.68-1.34,48-28.23,48.85-29.58,3.59-5.38,3.14-13.45-.9-17.93C466.09,357.62,459.82,358.07,455.78,363.45Z"/><path d="M455.78,234.38S441.44,254.1,421.72,255c-12.1.45-24.65-6.72-36.3-21.51-15.69-19.27-32.27-29.13-49.75-29.13h-2.24c-28.23,1.34-47.51,27.79-48.85,29.58h0s-14.34,19.72-34.06,20.62c-12.1.45-24.65-6.72-36.3-21.51C198.53,213.76,182,203.9,164.47,203.9h-2.24c-28.23,1.34-47.51,27.79-48.85,29.58h0S99,253.2,79.32,254.1c-11.65,1.34-23.75-5.83-35.41-20.17a8.67,8.67,0,0,0-7.17-3.59,9.36,9.36,0,0,0-7.17,3.59c-4,4.93-4,13,0,18.38,16.13,20.17,33.61,29.58,52,28.68,28.68-1.34,48-28.23,48.85-29.58,0,0,14.34-19.72,33.61-20.62,12.1-.45,24.65,6.72,36.3,21.51,16.13,20.17,33.61,29.58,52,28.68,28.68-1.34,48-28.23,48.85-29.58,0,0,14.34-19.72,33.61-20.62,12.1-.45,24.65,6.72,36.3,21.51,16.13,20.17,33.61,29.58,52,28.68,28.68-1.34,48-28.23,48.85-29.58,3.59-5.38,3.14-13.45-.9-17.93C466.09,228.55,459.82,229,455.78,234.38Z"/><path d="M81.11,151.91c28.68-1.34,48-28.23,48.85-29.58,0,0,14.34-19.72,33.61-20.62,12.1-.45,24.65,6.72,36.3,21.51,16.13,20.17,33.61,29.58,52,28.68,28.68-1.34,48-28.23,48.85-29.58,0,0,14.34-19.72,33.61-20.62,12.1-.45,24.65,6.72,36.3,21.51,16.13,20.17,33.61,29.58,52,28.68,28.68-1.34,48-28.23,48.85-29.58,3.59-5.38,3.14-13.45-.9-17.93-4.48-4.48-10.76-4-14.79,1.34,0,0-14.34,19.72-34.06,20.62-12.1.45-24.65-6.72-36.3-21.51-15.69-19.27-32.27-29.13-49.75-29.13h-2.24C305.2,77.07,285.93,104,285,105.3h0S270.69,125,251,125.92c-12.1.45-24.65-6.72-36.3-21.51C199,85.14,182.4,75.28,164.92,75.28h-2.24c-28.23,1.79-47.51,28.68-48.85,30h0S99.49,125,79.77,125.92c-12.1.45-24.65-6.72-36.3-21.51a8.67,8.67,0,0,0-7.17-3.59,9.36,9.36,0,0,0-7.17,3.59c-4,4.93-4,13,0,18.38C45.26,142.95,62.74,152.81,81.11,151.91Z"/></g></svg>